<svg width="25" height="24" viewBox="0 0 25 24" fill="none" xmlns="http://www.w3.org/2000/svg">
<g clip-path="url(#clip0_2586_313)">
<path d="M24.5 11.988C24.5 5.37 19.124 0 12.5 0C5.876 0 0.5 5.37 0.5 11.988C0.5 15.633 2.156 18.918 4.748 21.123C4.772 21.147 4.796 21.147 4.796 21.171C5.012 21.339 5.228 21.507 5.468 21.675C5.588 21.747 5.684 21.8415 5.804 21.9375C7.78791 23.2804 10.1283 23.9987 12.524 24C14.9197 23.9987 17.2601 23.2804 19.244 21.9375C19.364 21.8655 19.46 21.771 19.58 21.6975C19.796 21.531 20.036 21.363 20.252 21.195C20.276 21.171 20.3 21.171 20.3 21.147C22.844 18.9165 24.5 15.633 24.5 11.988ZM12.5 22.4895C10.244 22.4895 8.18 21.7695 6.476 20.571C6.5 20.379 6.548 20.1885 6.596 19.9965C6.73948 19.4763 6.9492 18.9767 7.22 18.51C7.484 18.054 7.796 17.646 8.18 17.286C8.54 16.926 8.972 16.5915 9.404 16.3275C9.86 16.0635 10.34 15.8715 10.868 15.7275C11.4003 15.5849 11.949 15.5128 12.5 15.513C14.1361 15.5006 15.7123 16.1283 16.892 17.262C17.444 17.814 17.876 18.4615 18.188 19.2045C18.356 19.6365 18.476 20.092 18.548 20.571C16.7768 21.8162 14.6652 22.4861 12.5 22.4895ZM8.828 11.3895C8.61697 10.9052 8.51064 10.3818 8.516 9.8535C8.516 9.327 8.612 8.799 8.828 8.319C9.044 7.839 9.332 7.4085 9.692 7.0485C10.052 6.6885 10.484 6.402 10.964 6.186C11.444 5.97 11.972 5.874 12.5 5.874C13.052 5.874 13.556 5.97 14.036 6.186C14.516 6.402 14.948 6.69 15.308 7.0485C15.668 7.4085 15.956 7.8405 16.172 8.319C16.388 8.799 16.484 9.327 16.484 9.8535C16.484 10.4055 16.388 10.9095 16.172 11.388C15.9647 11.8616 15.6718 12.2928 15.308 12.66C14.9407 13.0233 14.5094 13.3157 14.036 13.5225C13.0441 13.9293 11.9319 13.9293 10.94 13.5225C10.4666 13.3157 10.0353 13.0233 9.668 12.66C9.30387 12.298 9.01796 11.8665 8.828 11.3895ZM19.964 19.3485C19.964 19.3005 19.94 19.2765 19.94 19.2285C19.7044 18.4775 19.3564 17.7664 18.908 17.1195C18.4592 16.4679 17.9081 15.893 17.276 15.417C16.7931 15.0536 16.2696 14.7475 15.716 14.505C15.9667 14.3373 16.1998 14.1448 16.412 13.9305C16.7698 13.5773 17.084 13.1824 17.348 12.7545C17.8814 11.882 18.156 10.876 18.14 9.8535C18.1478 9.09673 18.0008 8.34636 17.708 7.6485C17.4192 6.97598 17.0037 6.36536 16.484 5.85C15.9638 5.34157 15.3534 4.93462 14.684 4.65C13.9851 4.35728 13.2337 4.21077 12.476 4.2195C11.7182 4.21125 10.9668 4.35827 10.268 4.6515C9.59127 4.93264 8.97883 5.34859 8.468 5.874C7.95692 6.39145 7.5496 7.00193 7.268 7.6725C6.97517 8.37036 6.82816 9.12073 6.836 9.8775C6.836 10.4055 6.908 10.909 7.052 11.388C7.196 11.892 7.388 12.348 7.652 12.7785C7.892 13.2105 8.228 13.5945 8.588 13.9545C8.804 14.1705 9.044 14.362 9.308 14.529C8.75195 14.7765 8.22809 15.0909 7.748 15.465C7.124 15.945 6.572 16.5195 6.116 17.1435C5.66341 17.788 5.31514 18.4997 5.084 19.2525C5.06 19.3005 5.06 19.3485 5.06 19.3725C3.164 17.454 1.988 14.865 1.988 11.988C1.988 6.21 6.716 1.4865 12.5 1.4865C18.284 1.4865 23.012 6.21 23.012 11.988C23.0089 14.7479 21.913 17.3943 19.964 19.3485Z" fill="black"/>
</g>
<defs>
<clipPath id="clip0_2586_313">
<rect width="24" height="24" fill="white" transform="translate(0.5)"/>
</clipPath>
</defs>
</svg>
