<svg width="24" height="24" viewBox="0 0 24 24" fill="none" xmlns="http://www.w3.org/2000/svg">
<g id="material-symbols-light:credit-score-outline-rounded">
<path id="Vector" d="M4 8.808H20V6.616C20 6.462 19.936 6.32067 19.808 6.192C19.68 6.06333 19.539 5.99933 19.385 6H4.615C4.46167 6 4.32067 6.064 4.192 6.192C4.06334 6.32 3.99934 6.46133 4 6.616V8.808ZM3 6.616C3 6.15533 3.15434 5.771 3.463 5.463C3.77167 5.155 4.15567 5.00067 4.615 5H19.385C19.845 5 20.229 5.15433 20.537 5.463C20.845 5.77167 20.9993 6.156 21 6.616V10.385C21 10.617 20.9233 10.8097 20.77 10.963C20.6167 11.1163 20.424 11.193 20.192 11.193H4V17.385C4 17.5383 4.064 17.6793 4.192 17.808C4.32 17.9367 4.461 18.0007 4.615 18H8.773C8.91567 18 9.03467 18.0477 9.13 18.143C9.22534 18.2383 9.273 18.3573 9.273 18.5C9.273 18.6427 9.22534 18.7617 9.13 18.857C9.03467 18.9523 8.91567 19 8.773 19H4.615C4.155 19 3.77067 18.846 3.462 18.538C3.15334 18.23 2.99934 17.8453 3 17.384V6.616ZM4 6.616V18V14.074V15.748V6V6.616ZM14.642 20.216C14.5473 20.216 14.4513 20.1973 14.354 20.16C14.2567 20.1227 14.1643 20.0603 14.077 19.973L11.439 17.335C11.345 17.2417 11.294 17.1277 11.286 16.993C11.278 16.8583 11.329 16.7363 11.439 16.627C11.545 16.5203 11.6617 16.467 11.789 16.467C11.917 16.467 12.036 16.5203 12.146 16.627L14.642 19.112L19.972 13.782C20.0687 13.6853 20.184 13.6347 20.318 13.63C20.452 13.6253 20.5743 13.6783 20.685 13.789C20.7917 13.899 20.8457 14.0167 20.847 14.142C20.849 14.268 20.795 14.386 20.685 14.496L15.208 19.973C15.1207 20.0597 15.0313 20.122 14.94 20.16C14.8493 20.1967 14.75 20.216 14.642 20.216Z" fill="#8F8B8B"/>
</g>
</svg>
