<svg width="25" height="24" viewBox="0 0 25 24" fill="none" xmlns="http://www.w3.org/2000/svg">
<path d="M12.5 21C14.28 21 16.0201 20.4722 17.5001 19.4832C18.9802 18.4943 20.1337 17.0887 20.8149 15.4442C21.4961 13.7996 21.6743 11.99 21.3271 10.2442C20.9798 8.49836 20.1226 6.89472 18.864 5.63604C17.6053 4.37737 16.0016 3.5202 14.2558 3.17294C12.51 2.82567 10.7004 3.0039 9.05585 3.68509C7.41131 4.36628 6.00571 5.51983 5.01677 6.99987C4.02784 8.47991 3.5 10.22 3.5 12C3.5 13.44 3.838 14.8 4.44 16.007C4.893 16.918 4.263 18.147 4.023 19.044C3.96983 19.2424 3.96982 19.4513 4.02297 19.6497C4.07613 19.8481 4.18057 20.029 4.3258 20.1742C4.47103 20.3194 4.65194 20.4239 4.85033 20.477C5.04872 20.5302 5.25761 20.5302 5.456 20.477C6.353 20.237 7.582 19.607 8.493 20.061C9.73821 20.6793 11.1097 21.0007 12.5 21Z" stroke="black" stroke-width="1.5" stroke-linecap="round" stroke-linejoin="round"/>
</svg>
