<svg width="25" height="24" viewBox="0 0 25 24" fill="none" xmlns="http://www.w3.org/2000/svg">
<path d="M6.633 21C5.455 21 4.5 20.02 4.5 18.81V10.008C4.5 9.34297 4.795 8.71297 5.3 8.29797L11.167 3.47997C11.5419 3.16955 12.0133 2.99969 12.5 2.99969C12.9867 2.99969 13.4581 3.16955 13.833 3.47997L19.699 8.29797C20.205 8.71297 20.5 9.34297 20.5 10.008V18.81C20.5 20.02 19.545 21 18.367 21H6.633Z" stroke="#6298B9" stroke-width="1.5" stroke-linecap="round" stroke-linejoin="round"/>
<path d="M10 21V15.5C10 14.9696 10.2107 14.4609 10.5858 14.0858C10.9609 13.7107 11.4696 13.5 12 13.5H13C13.5304 13.5 14.0391 13.7107 14.4142 14.0858C14.7893 14.4609 15 14.9696 15 15.5V21" stroke="#6298B9" stroke-width="1.5" stroke-linecap="round" stroke-linejoin="round"/>
</svg>
