<svg width="25" height="24" viewBox="0 0 25 24" fill="none" xmlns="http://www.w3.org/2000/svg">
<path fill-rule="evenodd" clip-rule="evenodd" d="M5.49993 9C5.49993 7.14348 6.23743 5.36301 7.55018 4.05025C8.86294 2.7375 10.6434 2 12.4999 2C14.3564 2 16.1369 2.7375 17.4497 4.05025C18.7624 5.36301 19.4999 7.14348 19.4999 9V12.764L21.3219 16.408C21.4058 16.5757 21.4454 16.7621 21.437 16.9494C21.4286 17.1368 21.3724 17.3188 21.2738 17.4783C21.1752 17.6379 21.0375 17.7695 20.8737 17.8608C20.7099 17.9521 20.5255 18 20.3379 18H16.3739C16.1515 18.8582 15.6504 19.6183 14.9492 20.1609C14.248 20.7035 13.3865 20.9979 12.4999 20.9979C11.6133 20.9979 10.7518 20.7035 10.0507 20.1609C9.3495 19.6183 8.84837 18.8582 8.62593 18H4.66193C4.47441 18 4.28999 17.9521 4.1262 17.8608C3.9624 17.7695 3.82467 17.6379 3.72608 17.4783C3.62748 17.3188 3.57131 17.1368 3.56288 16.9494C3.55445 16.7621 3.59406 16.5757 3.67793 16.408L5.49993 12.764V9ZM10.7679 18C10.9435 18.304 11.1959 18.5565 11.5 18.732C11.804 18.9075 12.1489 18.9999 12.4999 18.9999C12.851 18.9999 13.1959 18.9075 13.4999 18.732C13.8039 18.5565 14.0564 18.304 14.2319 18H10.7679ZM12.4999 4C11.1738 4 9.90208 4.52678 8.9644 5.46447C8.02671 6.40215 7.49993 7.67392 7.49993 9V12.764C7.49991 13.0743 7.42767 13.3804 7.28893 13.658L6.11893 16H18.8819L17.7119 13.658C17.5728 13.3805 17.5003 13.0744 17.4999 12.764V9C17.4999 7.67392 16.9731 6.40215 16.0355 5.46447C15.0978 4.52678 13.826 4 12.4999 4Z" fill="black"/>
</svg>
