<svg width="38" height="38" viewBox="0 0 38 38" fill="none" xmlns="http://www.w3.org/2000/svg">
<g id="solar:settings-outline">
<g id="Group">
<path id="Vector" fill-rule="evenodd" clip-rule="evenodd" d="M19 13.0625C17.4253 13.0625 15.9151 13.6881 14.8016 14.8016C13.6881 15.9151 13.0625 17.4253 13.0625 19C13.0625 20.5747 13.6881 22.0849 14.8016 23.1984C15.9151 24.3119 17.4253 24.9375 19 24.9375C20.5747 24.9375 22.0849 24.3119 23.1984 23.1984C24.3119 22.0849 24.9375 20.5747 24.9375 19C24.9375 17.4253 24.3119 15.9151 23.1984 14.8016C22.0849 13.6881 20.5747 13.0625 19 13.0625ZM15.4375 19C15.4375 18.0552 15.8128 17.149 16.4809 16.4809C17.149 15.8128 18.0552 15.4375 19 15.4375C19.9448 15.4375 20.851 15.8128 21.5191 16.4809C22.1872 17.149 22.5625 18.0552 22.5625 19C22.5625 19.9448 22.1872 20.851 21.5191 21.5191C20.851 22.1872 19.9448 22.5625 19 22.5625C18.0552 22.5625 17.149 22.1872 16.4809 21.5191C15.8128 20.851 15.4375 19.9448 15.4375 19Z" fill="black"/>
<path id="Vector_2" fill-rule="evenodd" clip-rule="evenodd" d="M18.9604 1.97917C18.2558 1.97917 17.6684 1.97917 17.1871 2.01084C16.695 2.03066 16.2096 2.13233 15.751 2.31167C15.2225 2.53031 14.7423 2.85091 14.3378 3.25516C13.9333 3.65941 13.6124 4.13938 13.3934 4.66767C13.1638 5.22184 13.1021 5.80767 13.0767 6.44417C13.0739 6.67689 13.0121 6.90511 12.8972 7.1075C12.7823 7.3099 12.618 7.47989 12.4196 7.60159C12.2151 7.71293 11.9857 7.77061 11.7528 7.76922C11.52 7.76784 11.2912 7.70744 11.0881 7.59367C10.5244 7.29601 9.98605 7.05692 9.39072 6.97776C8.8238 6.90318 8.24774 6.94101 7.69544 7.08907C7.14313 7.23713 6.6254 7.49252 6.1718 7.84067C5.78767 8.14859 5.45752 8.51835 5.19489 8.93476C4.92572 9.33692 4.63122 9.84517 4.27972 10.4548L4.24014 10.5244C3.88705 11.134 3.59414 11.6423 3.38197 12.0761C3.1603 12.5289 2.98614 12.9754 2.9228 13.4694C2.77175 14.6142 3.08158 15.772 3.78414 16.6883C4.14989 17.1649 4.62647 17.5117 5.1648 17.8505C5.36531 17.9694 5.53236 18.1372 5.65033 18.3383C5.7683 18.5393 5.83332 18.767 5.8393 19C5.83332 19.233 5.7683 19.4607 5.65033 19.6618C5.53236 19.8628 5.36531 20.0306 5.1648 20.1495C4.62647 20.4883 4.15147 20.8351 3.78414 21.3117C3.43599 21.7653 3.18059 22.283 3.03253 22.8353C2.88447 23.3876 2.84665 23.9637 2.92122 24.5306C2.98614 25.0246 3.15872 25.4711 3.38039 25.9239C3.59414 26.3578 3.88705 26.866 4.24014 27.4756L4.27972 27.5453C4.63122 28.1548 4.92572 28.6631 5.19489 29.0653C5.47514 29.4817 5.77597 29.8569 6.1718 30.1578C6.62528 30.5062 7.14296 30.7619 7.69527 30.9102C8.24758 31.0585 8.82369 31.0966 9.39072 31.0223C9.98605 30.9431 10.5244 30.7056 11.0881 30.4063C11.291 30.2929 11.5195 30.2326 11.752 30.2312C11.9846 30.2298 12.2137 30.2874 12.4181 30.3984C12.6181 30.5186 12.7838 30.6882 12.8994 30.8909C13.015 31.0935 13.0766 31.3225 13.0783 31.5558C13.1021 32.1923 13.1638 32.7782 13.395 33.3323C13.6136 33.8608 13.9342 34.341 14.3385 34.7455C14.7427 35.15 15.2227 35.4709 15.751 35.6899C16.2101 35.8799 16.6851 35.9543 17.1871 35.9876C17.6684 36.0208 18.2558 36.0208 18.9604 36.0208H19.0396C19.7441 36.0208 20.3316 36.0208 20.8129 35.9892C21.3164 35.9543 21.7898 35.8799 22.249 35.6883C22.7774 35.4697 23.2576 35.1491 23.6621 34.7449C24.0666 34.3406 24.3876 33.8606 24.6066 33.3323C24.8361 32.7782 24.8979 32.1923 24.9232 31.5558C24.9258 31.3228 24.9874 31.0943 25.1023 30.8916C25.2172 30.6889 25.3817 30.5187 25.5803 30.3968C25.785 30.2857 26.0145 30.2283 26.2473 30.23C26.4802 30.2317 26.7088 30.2923 26.9119 30.4063C27.4756 30.704 28.0139 30.9431 28.6092 31.0207C29.754 31.1717 30.9118 30.8619 31.8281 30.1593C32.224 29.8553 32.5248 29.4817 32.8051 29.0653C33.0742 28.6631 33.3687 28.1548 33.7202 27.5453L33.7598 27.4756C34.1129 26.866 34.4058 26.3578 34.618 25.9239C34.8396 25.4711 35.0138 25.023 35.0771 24.5306C35.2282 23.3859 34.9184 22.228 34.2158 21.3117C33.8501 20.8351 33.3735 20.4883 32.8351 20.1495C32.6346 20.0306 32.4676 19.8628 32.3496 19.6618C32.2316 19.4607 32.1666 19.233 32.1606 19C32.1606 18.5598 32.4013 18.1228 32.8351 17.8505C33.3735 17.5117 33.8485 17.1649 34.2158 16.6883C34.564 16.2347 34.8193 15.717 34.9674 15.1647C35.1155 14.6124 35.1533 14.0363 35.0787 13.4694C35.0041 12.9827 34.8489 12.5118 34.6196 12.0761C34.3491 11.5501 34.0624 11.0326 33.7598 10.5244L33.7202 10.4548C33.431 9.93871 33.1258 9.4318 32.8051 8.93476C32.5423 8.51891 32.2121 8.1497 31.8281 7.84226C31.3747 7.49383 30.857 7.23815 30.3047 7.08982C29.7524 6.94148 29.1762 6.90341 28.6092 6.97776C28.0139 7.05692 27.4756 7.29442 26.9119 7.59367C26.7089 7.70716 26.4805 7.7674 26.2479 7.76878C26.0153 7.77017 25.7862 7.71265 25.5819 7.60159C25.3829 7.48027 25.218 7.31045 25.1025 7.10803C24.987 6.9056 24.9248 6.67719 24.9216 6.44417C24.8979 5.80767 24.8361 5.22184 24.605 4.66767C24.3863 4.13923 24.0657 3.65904 23.6615 3.25453C23.2572 2.85001 22.7773 2.52909 22.249 2.31009C21.7898 2.12009 21.3148 2.04567 20.8129 2.01242C20.3316 1.97917 19.7441 1.97917 19.0396 1.97917H18.9604ZM16.6598 4.50459C16.7817 4.45392 16.967 4.408 17.3486 4.38109C17.7396 4.35417 18.2463 4.35417 19 4.35417C19.7536 4.35417 20.2603 4.35417 20.6514 4.38109C21.033 4.408 21.2182 4.45392 21.3401 4.50459C21.8262 4.70567 22.211 5.09042 22.4121 5.57651C22.4754 5.72851 22.5276 5.96759 22.5482 6.53284C22.5957 7.78684 23.2433 8.99492 24.3928 9.65834C25.5423 10.3218 26.9119 10.279 28.0218 9.69317C28.5221 9.42876 28.7549 9.35434 28.9196 9.33376C29.4398 9.26501 29.966 9.40568 30.3826 9.72484C30.4871 9.80559 30.6201 9.94334 30.8338 10.26C31.0539 10.5862 31.3072 11.0248 31.6841 11.6771C32.0609 12.3294 32.3126 12.7696 32.4852 13.1211C32.6546 13.4647 32.7069 13.6483 32.7227 13.7798C32.7915 14.3 32.6508 14.8262 32.3316 15.2428C32.2303 15.3742 32.0498 15.5388 31.5716 15.8397C30.5076 16.5078 29.7856 17.6732 29.7856 19C29.7856 20.3268 30.5076 21.4922 31.5716 22.1603C32.0498 22.4612 32.2303 22.6258 32.3316 22.7573C32.6515 23.1737 32.7908 23.6993 32.7227 24.2203C32.7069 24.3517 32.6531 24.5369 32.4852 24.8789C32.3126 25.232 32.0609 25.6706 31.6841 26.3229C31.3072 26.9753 31.0523 27.4138 30.8338 27.74C30.6201 28.0567 30.4871 28.1944 30.3826 28.2752C29.966 28.5943 29.4398 28.735 28.9196 28.6663C28.7549 28.6457 28.5237 28.5713 28.0218 28.3068C26.9135 27.721 25.5423 27.6767 24.3928 28.3401C23.2433 29.0035 22.5957 30.2132 22.5482 31.4672C22.5276 32.0324 22.4754 32.2715 22.4121 32.4235C22.3126 32.6639 22.1667 32.8822 21.9828 33.0662C21.7989 33.2501 21.5805 33.396 21.3401 33.4954C21.2182 33.5461 21.033 33.592 20.6514 33.6189C20.2603 33.6458 19.7536 33.6458 19 33.6458C18.2463 33.6458 17.7396 33.6458 17.3486 33.6189C16.967 33.592 16.7817 33.5461 16.6598 33.4954C16.4195 33.396 16.2011 33.2501 16.0171 33.0662C15.8332 32.8822 15.6874 32.6639 15.5879 32.4235C15.5246 32.2715 15.4723 32.0324 15.4517 31.4672C15.4042 30.2132 14.7566 29.0051 13.6071 28.3417C12.4576 27.6783 11.0881 27.721 9.97814 28.3068C9.4778 28.5713 9.24505 28.6457 9.08039 28.6663C8.56016 28.735 8.03392 28.5943 7.61739 28.2752C7.51289 28.1944 7.37989 28.0567 7.16614 27.74C6.86828 27.2765 6.58473 26.8039 6.31589 26.3229C5.93905 25.6706 5.6873 25.2304 5.51472 24.8789C5.3453 24.5353 5.29305 24.3517 5.27722 24.2203C5.20848 23.7 5.34915 23.1738 5.6683 22.7573C5.76964 22.6258 5.95014 22.4612 6.4283 22.1603C7.4923 21.4922 8.2143 20.3268 8.2143 19C8.2143 17.6732 7.4923 16.5078 6.4283 15.8397C5.95014 15.5388 5.76964 15.3742 5.6683 15.2428C5.34915 14.8262 5.20848 14.3 5.27722 13.7798C5.29305 13.6483 5.34689 13.4631 5.51472 13.1211C5.6873 12.768 5.93905 12.3294 6.31589 11.6771C6.69272 11.0248 6.94764 10.5862 7.16614 10.26C7.37989 9.94334 7.51289 9.80559 7.61739 9.72484C8.03392 9.40568 8.56016 9.26501 9.08039 9.33376C9.24505 9.35434 9.47622 9.42876 9.97814 9.69317C11.0865 10.279 12.4576 10.3233 13.6071 9.65834C14.7566 8.99492 15.4042 7.78684 15.4517 6.53284C15.4723 5.96759 15.5246 5.72851 15.5879 5.57651C15.789 5.09042 16.1737 4.70567 16.6598 4.50459Z" fill="black"/>
</g>
</g>
</svg>
