<svg width="67" height="56" viewBox="0 0 67 56" fill="none" xmlns="http://www.w3.org/2000/svg">
<rect width="67" height="56" fill="#1E1E1E"/>
<g id="banner" clip-path="url(#clip0_0_1)">
<rect width="390" height="844" transform="translate(-30 -65)" fill="white"/>
<g id="Group 7">
<g id="Group 2">
<line id="Line 1" x1="37.6915" y1="3.31191" x2="44.8915" y2="1.71191" stroke="black"/>
<line id="Line 2" x1="44.9089" y1="1.80685" x2="50.5089" y2="6.20685" stroke="black"/>
<line id="Line 4" x1="50.5" y1="6.20001" x2="56.9" y2="11" stroke="black"/>
<line id="Line 5" x1="50.138" y1="11.7039" x2="56.538" y2="10.9039" stroke="black"/>
<line id="Line 6" x1="50.4011" y1="12.2578" x2="24.0011" y2="23.8578" stroke="black"/>
<line id="Line 7" x1="46.6775" y1="13.5482" x2="43.0775" y2="25.1482" stroke="black"/>
<line id="Line 8" x1="43.3109" y1="24.9916" x2="29.7109" y2="35.7916" stroke="black"/>
<line id="Line 9" x1="29.876" y1="35.553" x2="26.276" y2="46.753" stroke="black"/>
<line id="Line 10" x1="26.2707" y1="46.695" x2="15.0707" y2="48.295" stroke="black"/>
<line id="Line 11" x1="14.9301" y1="48.3709" x2="10.1301" y2="35.1709" stroke="black"/>
<line id="Line 12" x1="10.437" y1="34.9273" x2="22.037" y2="30.9273" stroke="black"/>
<line id="Line 13" x1="24.2968" y1="21.3976" x2="0.696782" y2="3.39756" stroke="black"/>
<line id="Line 14" x1="0.933041" y1="2.90451" x2="15.733" y2="0.904513" stroke="black"/>
<line id="Line 15" x1="15.7875" y1="0.683937" x2="28.1875" y2="15.8839" stroke="black"/>
<line id="Line 16" x1="21.7128" y1="31.2876" x2="24.1128" y2="20.8876" stroke="black"/>
<line id="Line 17" x1="27.5133" y1="15.7904" x2="35.5133" y2="10.1904" stroke="black"/>
<line id="Line 18" x1="38.2692" y1="3.57286" x2="35.4692" y2="11.1729" stroke="black"/>
<line id="Line 19" x1="16.2816" y1="0.865601" x2="21.0816" y2="18.0656" stroke="black"/>
<line id="Line 20" x1="14.9805" y1="47.5279" x2="24.5805" y2="32.7279" stroke="black"/>
<line id="Line 21" x1="25.3012" y1="46.6344" x2="23.7012" y2="23.4344" stroke="black"/>
<line id="Line 22" x1="10.9178" y1="34.9068" x2="34.9178" y2="30.9068" stroke="black"/>
</g>
<path id="Vector 1" d="M15 55C41.441 54.5594 34.4 40.2 66.2 28" stroke="black" stroke-width="1.5"/>
</g>
</g>
<defs>
<clipPath id="clip0_0_1">
<rect width="390" height="844" fill="white" transform="translate(-30 -65)"/>
</clipPath>
</defs>
</svg>
