<svg width="48" height="48" viewBox="0 0 48 48" fill="none" xmlns="http://www.w3.org/2000/svg">
<g id="Frame">
<path id="Vector" d="M24 39.4V38H36.4C36.8333 38 37.2083 37.8667 37.525 37.6C37.8417 37.3333 38 36.9833 38 36.55V22.9C38 19.2 36.6167 16.125 33.85 13.675C31.0833 11.225 27.8 10 24 10C20.2 10 16.9167 11.225 14.15 13.675C11.3833 16.125 10 19.2 10 22.9V34H9.30001C8.56667 34 7.93334 33.7583 7.40001 33.275C6.86667 32.7917 6.60001 32.1833 6.60001 31.45V27.75C6.60001 27.1833 6.80001 26.6917 7.20001 26.275C7.60001 25.8583 8.06667 25.5167 8.60001 25.25V22.85C8.60001 20.8167 9.01667 18.9333 9.85001 17.2C10.6833 15.4667 11.8 13.9583 13.2 12.675C14.6 11.3917 16.2333 10.3917 18.1 9.67501C19.9667 8.95834 21.9333 8.60001 24 8.60001C26.0667 8.60001 28.0333 8.95834 29.9 9.67501C31.7667 10.3917 33.4 11.3917 34.8 12.675C36.2 13.9583 37.3167 15.4667 38.15 17.2C38.9833 18.9333 39.4 20.8167 39.4 22.85V25.2C39.9 25.4333 40.3583 25.7333 40.775 26.1C41.1917 26.4667 41.4 26.9333 41.4 27.5V31.75C41.4 32.3167 41.1917 32.7833 40.775 33.15C40.3583 33.5167 39.9 33.8167 39.4 34.05V36.55C39.4 37.35 39.1083 38.025 38.525 38.575C37.9417 39.125 37.2333 39.4 36.4 39.4H24ZM19 26.8C18.6333 26.8 18.3083 26.675 18.025 26.425C17.7417 26.175 17.6 25.8667 17.6 25.5C17.6 25.1333 17.7417 24.8167 18.025 24.55C18.3083 24.2833 18.6333 24.15 19 24.15C19.3667 24.15 19.6917 24.2833 19.975 24.55C20.2583 24.8167 20.4 25.1333 20.4 25.5C20.4 25.8667 20.2583 26.175 19.975 26.425C19.6917 26.675 19.3667 26.8 19 26.8ZM29 26.8C28.6333 26.8 28.3083 26.675 28.025 26.425C27.7417 26.175 27.6 25.8667 27.6 25.5C27.6 25.1333 27.7417 24.8167 28.025 24.55C28.3083 24.2833 28.6333 24.15 29 24.15C29.3667 24.15 29.6917 24.2833 29.975 24.55C30.2583 24.8167 30.4 25.1333 30.4 25.5C30.4 25.8667 30.2583 26.175 29.975 26.425C29.6917 26.675 29.3667 26.8 29 26.8ZM13.85 23.6C13.6833 20.7667 14.6167 18.3583 16.65 16.375C18.6833 14.3917 21.1667 13.4 24.1 13.4C26.5667 13.4 28.7583 14.125 30.675 15.575C32.5917 17.025 33.7667 18.95 34.2 21.35C31.6667 21.3167 29.3083 20.6833 27.125 19.45C24.9417 18.2167 23.2667 16.4833 22.1 14.25C21.6333 16.45 20.6667 18.3667 19.2 20C17.7333 21.6333 15.95 22.8333 13.85 23.6Z" fill="black"/>
</g>
</svg>
