<svg width="328" height="24" viewBox="0 0 328 24" fill="none" xmlns="http://www.w3.org/2000/svg">
<path d="M0 5C0 2.23858 2.23858 0 5 0H323C325.761 0 328 2.23858 328 5V19C328 21.7614 325.761 24 323 24H5C2.23857 24 0 21.7614 0 19V5Z" fill="#97CADB" fill-opacity="0.35"/>
<path d="M0 5C0 2.23858 2.23858 0 5 0H323C325.761 0 328 2.23858 328 5V19C328 21.7614 325.761 24 323 24H5C2.23857 24 0 21.7614 0 19V5Z" fill="#C1E8FF"/>
<path d="M0 5C0 2.23858 2.23858 0 5 0H323C325.761 0 328 2.23858 328 5V19C328 21.7614 325.761 24 323 24H5C2.23857 24 0 21.7614 0 19V5Z" fill="#7DA0CA" fill-opacity="0.2"/>
</svg>
